<svg xmlns="http://www.w3.org/2000/svg" viewBox="0 0 800 800"><path d="M0 0v800h800V0z" fill="#ff001e"/><path d="M0 560h800v240H0z"/><path fill="#fff" d="M319.27 618.67h-171.2a2.07 2.07 0 0 0-2.28 2.27v115.3a2.09 2.09 0 0 0 2.28 2.29h171.2c50.29 0 75.67-16.71 75.67-60.31 0-43.3-25.38-59.55-75.67-59.55zm-44.33 97.83h-53.63c-1.52 0-1.83-.61-1.83-1.83v-72.16c0-1.2.31-1.82 1.83-1.82h53.63c31.89 0 44.66 9.11 44.66 37.83s-12.77 37.98-44.66 37.98zM665 733.67l-49.52-34.94c-1.22-.92-2-1.37-2-2s.46-.92 1.53-.92c25 0 44.5-11.69 44.5-37.51s-16.65-39.63-47.51-39.63H424.4a2.06 2.06 0 0 0-2.27 2.27v115.3a2.08 2.08 0 0 0 2.27 2.29h69a2.08 2.08 0 0 0 2.28-2.29V708.9c0-1.37.46-1.82 1.83-1.82h39.73c2 0 2.73.15 4.1 1.22l34.49 28.56a6.6 6.6 0 0 0 4.85 1.67h85.84q1.83 0 1.83-1.38c.04-1.21-2.09-2.57-3.35-3.48zm-107.54-48h-59.81c-1.37 0-1.83-.46-1.83-1.82v-41.34c0-1.36.46-1.82 1.83-1.82h59.85c20.06 0 28.56 5.48 28.56 22 0 16.74-8.5 22.97-28.56 22.97zM233 371.64a1.79 1.79 0 0 1-1.78 1.8h-45.15a1.79 1.79 0 0 1-1.78-1.8V118.87a1.79 1.79 0 0 1 1.78-1.8h45.13a1.79 1.79 0 0 1 1.78 1.8zm75.55 0a1.79 1.79 0 0 1-1.78 1.8h-45.13a1.79 1.79 0 0 1-1.78-1.8v-81.88a1.79 1.79 0 0 1 1.78-1.8h45.13a1.79 1.79 0 0 1 1.78 1.8zm75.57-21.36a1.79 1.79 0 0 1-1.78 1.8h-45.13a1.79 1.79 0 0 1-1.77-1.8V204.39a1.79 1.79 0 0 1 1.77-1.8h45.13a1.79 1.79 0 0 1 1.78 1.8zm75.57 106.85a1.79 1.79 0 0 1-1.78 1.8h-45.12a1.79 1.79 0 0 1-1.78-1.8V204.36a1.79 1.79 0 0 1 1.78-1.8h45.12a1.79 1.79 0 0 1 1.78 1.8zM535.26 393a1.79 1.79 0 0 1-1.78 1.8h-45.12a1.79 1.79 0 0 1-1.78-1.8V247.1a1.79 1.79 0 0 1 1.78-1.8h45.12a1.79 1.79 0 0 1 1.78 1.8zm75.58 0a1.8 1.8 0 0 1-1.78 1.8h-45.13a1.79 1.79 0 0 1-1.78-1.8V140.22a1.79 1.79 0 0 1 1.78-1.8h45.13a1.8 1.8 0 0 1 1.78 1.8z"/></svg>