<svg width="34" height="29" viewBox="0 0 34 29" fill="none" xmlns="http://www.w3.org/2000/svg">
<path d="M18.5548 0.560162C17.8308 -0.040137 16.8232 -0.16955 15.9698 0.228185C15.1166 0.625919 14.5714 1.47898 14.5714 2.41669V8.63097H13.762C6.00634 8.63097 0 15.2826 0 23.1308V24.8571C0 25.8498 0.60996 26.7413 1.53801 27.1055C2.46604 27.4695 3.52337 27.2317 4.204 26.506L6.88646 23.6461C8.87521 21.5259 11.535 20.3691 14.2698 20.3691H14.5714V26.5833C14.5714 27.521 15.1166 28.374 15.9698 28.7718C16.8232 29.1696 17.8308 29.0401 18.5548 28.4398L33.1262 16.3565C33.6799 15.8974 34 15.2172 34 14.5C34 13.7828 33.6799 13.1026 33.1262 12.6435L18.5548 0.560162Z" fill="#1C1C1C"/>
</svg>
