<svg viewBox="0 0 800 800" xmlns="http://www.w3.org/2000/svg">
  <path d="M0 0v800h800V0Z" fill="#ff001e"></path>
  <g>
    <path d="M0 560h800v240H0z"></path>
    <path fill="#fff"
      d="M319.27 618.67h-171.2a2.07 2.07 0 0 0-2.28 2.27v115.3a2.09 2.09 0 0 0 2.28 2.29h171.2c50.29 0 75.67-16.71 75.67-60.31 0-43.3-25.38-59.55-75.67-59.55Zm-44.33 97.83h-53.63c-1.52 0-1.83-.61-1.83-1.83v-72.16c0-1.2.31-1.82 1.83-1.82h53.63c31.89 0 44.66 9.11 44.66 37.83s-12.77 37.98-44.66 37.98ZM665 733.67l-49.52-34.94c-1.22-.92-2-1.37-2-2s.46-.92 1.53-.92c25 0 44.5-11.69 44.5-37.51s-16.65-39.63-47.51-39.63H424.4a2.06 2.06 0 0 0-2.27 2.27v115.3a2.08 2.08 0 0 0 2.27 2.29h69a2.08 2.08 0 0 0 2.28-2.29V708.9c0-1.37.46-1.82 1.83-1.82h39.73c2 0 2.73.15 4.1 1.22l34.49 28.56a6.6 6.6 0 0 0 4.85 1.67h85.84q1.83 0 1.83-1.38c.04-1.21-2.09-2.57-3.35-3.48Zm-107.54-48h-59.81c-1.37 0-1.83-.46-1.83-1.82v-41.34c0-1.36.46-1.82 1.83-1.82h59.85c20.06 0 28.56 5.48 28.56 22 0 16.74-8.5 22.97-28.56 22.97Z">
    </path>
  </g>
  <g>
    <path fill="#fff"
      d="M352.12 349.76 474 279.38a4.92 4.92 0 0 0 0-8.52l-121.9-70.37a4.91 4.91 0 0 0-7.37 4.26V345.5a4.92 4.92 0 0 0 7.39 4.26Z">
    </path>
    <path fill="#fff"
      d="M396.59 467.42a191.8 191.8 0 0 1-176.88-117.14l44.82-19a143.2 143.2 0 0 0 132.06 87.45c79.06 0 143.37-64.31 143.37-143.36S475.65 132 396.59 132a143.2 143.2 0 0 0-132.11 87.57l-44.83-19A191.77 191.77 0 0 1 396.59 83.32c105.9 0 192.05 86.15 192.05 192.05s-86.15 192.05-192.05 192.05Z">
    </path>
  </g>
</svg>