<svg width="107" height="95" viewBox="0 0 107 95" fill="none" xmlns="http://www.w3.org/2000/svg">
<path d="M102.5 91.5L5 89.5L3.5 7.5L6 3L40.5 4L45.5 9.5H91L92.5 27H102.5V91.5Z" fill="#FFE9B0" stroke="black"/>
<path fill-rule="evenodd" clip-rule="evenodd" d="M95.337 23.75V14.8438C95.337 9.9275 91.3482 5.9375 86.4203 5.9375H46.0992L46.0635 5.85433C44.7795 2.33933 41.4328 0 37.6878 0C30.7684 0 16.8703 0 8.91667 0C3.99467 0 0 3.99 0 8.90625V86.0938C0 91.01 3.99467 95 8.91667 95H98.0833C103.005 95 107 91.01 107 86.0938V32.6562C107 27.74 103.005 23.75 98.0833 23.75H95.337ZM54.683 29.6875H98.0833C99.724 29.6875 101.056 31.0175 101.056 32.6562V86.0938C101.056 87.7325 99.724 89.0625 98.0833 89.0625H8.91667C7.276 89.0625 5.94444 87.7325 5.94444 86.0938C5.94444 69.9022 5.94444 25.0978 5.94444 8.90625C5.94444 7.2675 7.276 5.9375 8.91667 5.9375H37.6878C38.9361 5.9375 40.0537 6.71528 40.4817 7.89091C42.0926 12.2965 44.6963 19.4275 46.3073 23.8332C47.5972 27.3482 50.938 29.6875 54.683 29.6875ZM48.2689 11.875L51.8951 21.7966C52.3231 22.9722 53.4347 23.75 54.689 23.75H89.3925V14.8438C89.3925 13.205 88.0669 11.875 86.4203 11.875H48.2689Z" fill="black"/>
</svg>
