<svg width="82" height="109" viewBox="0 0 82 109" fill="none" xmlns="http://www.w3.org/2000/svg">
<path d="M74.8589 103.522L79 32.8647L55.0736 5H9.52147L4 18.4348V97.5507L9.52147 103.522L36.2086 108L74.8589 103.522Z" fill="#FFFFEC" stroke="black"/>
<path d="M81.698 31.3655C81.698 31.2487 81.698 31.015 81.698 30.8982V30.7813C81.698 30.5477 81.584 30.4309 81.47 30.1972L81.356 30.0804C81.242 29.9636 81.242 29.8467 81.128 29.7299L81.014 29.6131C80.9 29.4963 80.9 29.3794 80.786 29.2626L80.672 29.1458L51.944 1.10746C51.83 0.990636 51.716 0.873809 51.488 0.756983L51.374 0.640157C51.26 0.523331 51.146 0.523331 50.918 0.406504L50.69 0.289678L50.234 0.172852H50.12C49.892 0.172852 49.664 0.172852 49.55 0.172852H15.35C6.91402 0.172852 0.188019 7.18243 0.188019 15.8276V92.933C0.188019 101.578 7.02802 108.588 15.464 108.588H66.422C74.858 108.588 81.698 101.578 81.698 92.933V31.3655ZM53.084 11.8555L69.728 27.9775H58.556C55.592 27.9775 53.084 25.5242 53.084 22.3699V11.8555ZM66.536 101.578H15.464C10.79 101.578 7.02802 97.7228 7.02802 92.933V15.8276C7.02802 11.0377 10.79 7.18243 15.464 7.18243H46.13V22.3699C46.13 29.2626 51.716 34.8703 58.442 34.8703H74.858V92.933C74.858 97.7228 71.096 101.578 66.536 101.578Z" fill="black"/>
<path d="M16.262 59.0533H40.886C42.824 59.0533 44.306 57.5346 44.306 55.5485C44.306 53.5625 42.824 52.0437 40.886 52.0437H16.262C14.324 52.0437 12.842 53.5625 12.842 55.5485C12.842 57.5346 14.324 59.0533 16.262 59.0533Z" fill="black"/>
<path d="M65.738 68.3994H16.262C14.324 68.3994 12.842 69.9182 12.842 71.9042C12.842 73.8903 14.324 75.409 16.262 75.409H65.738C67.676 75.409 69.158 73.8903 69.158 71.9042C69.158 69.9182 67.676 68.5162 65.738 68.3994Z" fill="black"/>
<path d="M65.738 84.8719H16.262C14.324 84.8719 12.842 86.3907 12.842 88.3767C12.842 90.3628 14.324 91.8815 16.262 91.8815H65.738C67.676 91.8815 69.158 90.3628 69.158 88.3767C69.158 86.3907 67.676 84.8719 65.738 84.8719Z" fill="black"/>
</svg>
