<!-- web by HASTA ICON from <a href="https://thenounproject.com/browse/icons/term/web/" target="_blank" title="web Icons">Noun Project</a> (CC BY 3.0) -->
<svg width="106" height="106" viewBox="0 0 106 106" fill="none" xmlns="http://www.w3.org/2000/svg">
<circle cx="52.5" cy="52.5" r="52.5" fill="#C6DDED"/>
<path d="M53 0C42.5176 0 32.2706 3.10839 23.5548 8.93211C14.839 14.7558 8.04585 23.0333 4.03441 32.7178C0.0229638 42.4023 -1.02661 53.0588 1.0184 63.3398C3.06342 73.6208 8.11118 83.0645 15.5234 90.4766C22.9355 97.8888 32.3792 102.937 42.6602 104.982C52.9412 107.027 63.5977 105.977 73.2822 101.966C82.9667 97.9541 91.2442 91.161 97.0679 82.4452C102.892 73.7294 106 63.4824 106 53C105.983 38.9489 100.393 25.4782 90.4574 15.5426C80.5218 5.60695 67.0511 0.0174368 53 0ZM6.76504 56.2946H21.2396C21.5137 62.5315 22.751 68.6884 24.9076 74.547H11.9267C8.9602 68.8862 7.2025 62.6707 6.76504 56.2946ZM56.2947 24.8637V9.35682C61.9885 13.5796 66.8326 18.841 70.5715 24.8637H56.2947ZM73.8661 31.453C76.3498 37.2378 77.7852 43.4181 78.1053 49.7053H56.1409V31.453H73.7124H73.8661ZM49.7054 9.31289V24.8637H35.4285C39.1369 18.8055 43.9854 13.5243 49.7054 9.31289ZM49.7054 31.453V49.7053H27.741C28.0494 43.4233 29.462 37.2448 31.9142 31.453H49.7054ZM21.1517 49.7053H6.76504C7.20932 43.3277 8.97453 37.1121 11.9486 31.453H24.9296C22.7658 37.3104 21.5211 43.4673 21.2396 49.7053H21.1517ZM27.741 56.2946H49.7054V74.547H32.0241C29.5643 68.7566 28.1442 62.578 27.8289 56.2946H27.741ZM49.7054 81.1363V96.6871C43.9854 92.4757 39.1369 87.1945 35.4285 81.1363H49.7054ZM56.2947 96.6871V81.1363H70.5715C66.8631 87.1945 62.0146 92.4757 56.2947 96.6871ZM56.2947 74.547V56.2946H78.259C77.9506 62.5766 76.538 68.7552 74.0858 74.547H56.2947ZM84.8483 56.2946H99.3228C98.8786 62.6723 97.1133 68.8879 94.1392 74.547H81.0924C83.249 68.6884 84.4863 62.5315 84.7605 56.2946H84.8483ZM84.8483 49.7053C84.5738 43.4685 83.3365 37.3116 81.1803 31.453H94.0734C97.0475 37.1121 98.8127 43.3277 99.2569 49.7053H84.7605H84.8483ZM89.9001 24.8637H78.259C74.9992 18.663 70.6889 13.0745 65.5197 8.34646C75.19 11.081 83.7134 16.8764 89.8123 24.8637H89.9001ZM40.5682 8.34646C35.399 13.0745 31.0887 18.663 27.8289 24.8637H16.1878C22.3093 16.8607 30.8658 11.0639 40.5682 8.34646ZM16.1878 81.1363H27.8289C31.0887 87.337 35.399 92.9255 40.5682 97.6535C30.8658 94.9361 22.3093 89.1392 16.1878 81.1363ZM65.4538 97.6535C70.623 92.9255 74.9333 87.337 78.1931 81.1363H89.8342C83.707 89.1432 75.1422 94.9404 65.4318 97.6535H65.4538Z" fill="black"/>
</svg>
